<mxfile host="app.diagrams.net" modified="2023-12-21T16:19:50.105Z" agent="Mozilla/5.0 (Windows NT 10.0; Win64; x64) AppleWebKit/537.36 (KHTML, like Gecko) Chrome/120.0.0.0 Safari/537.36" etag="5p_OzA_Ia9TKIZlFI4dr" version="22.1.11" type="google">
  <diagram name="第 1 页" id="IdlgRWl8vSGvLfVIpvfX">
    <mxGraphModel grid="0" page="0" gridSize="10" guides="1" tooltips="1" connect="1" arrows="1" fold="1" pageScale="1" pageWidth="827" pageHeight="1169" math="0" shadow="0">
      <root>
        <mxCell id="0" />
        <mxCell id="1" parent="0" />
        <mxCell id="5moh-K5nebXSy-n8Y64M-1" value="美食信息評論" style="rounded=1;whiteSpace=wrap;html=1;fontSize=16;arcSize=23;" vertex="1" parent="1">
          <mxGeometry x="276" y="183" width="105" height="33" as="geometry" />
        </mxCell>
        <mxCell id="5moh-K5nebXSy-n8Y64M-4" value="" style="ellipse;whiteSpace=wrap;html=1;fontSize=16;rotation=90;" vertex="1" parent="1">
          <mxGeometry x="245" y="-60" width="82" height="63" as="geometry" />
        </mxCell>
        <mxCell id="5moh-K5nebXSy-n8Y64M-5" value="" style="ellipse;whiteSpace=wrap;html=1;fontSize=16;rotation=75;" vertex="1" parent="1">
          <mxGeometry x="163" y="-35" width="82" height="63" as="geometry" />
        </mxCell>
        <mxCell id="5moh-K5nebXSy-n8Y64M-6" value="" style="ellipse;whiteSpace=wrap;html=1;fontSize=16;rotation=75;" vertex="1" parent="1">
          <mxGeometry x="81" y="-6" width="82" height="63" as="geometry" />
        </mxCell>
        <mxCell id="5moh-K5nebXSy-n8Y64M-7" value="" style="ellipse;whiteSpace=wrap;html=1;fontSize=16;rotation=105;" vertex="1" parent="1">
          <mxGeometry x="418" y="-35" width="82" height="63" as="geometry" />
        </mxCell>
        <mxCell id="5moh-K5nebXSy-n8Y64M-32" style="edgeStyle=none;curved=1;rounded=0;orthogonalLoop=1;jettySize=auto;html=1;exitX=1;exitY=0;exitDx=0;exitDy=0;entryX=0.75;entryY=1;entryDx=0;entryDy=0;fontSize=12;startSize=8;endSize=8;" edge="1" parent="1" source="5moh-K5nebXSy-n8Y64M-8" target="5moh-K5nebXSy-n8Y64M-16">
          <mxGeometry relative="1" as="geometry" />
        </mxCell>
        <mxCell id="5moh-K5nebXSy-n8Y64M-33" style="edgeStyle=none;curved=1;rounded=0;orthogonalLoop=1;jettySize=auto;html=1;exitX=1;exitY=0.5;exitDx=0;exitDy=0;entryX=0.75;entryY=1;entryDx=0;entryDy=0;fontSize=12;startSize=8;endSize=8;" edge="1" parent="1" source="5moh-K5nebXSy-n8Y64M-8" target="5moh-K5nebXSy-n8Y64M-16">
          <mxGeometry relative="1" as="geometry" />
        </mxCell>
        <mxCell id="5moh-K5nebXSy-n8Y64M-8" value="" style="ellipse;whiteSpace=wrap;html=1;fontSize=16;rotation=105;" vertex="1" parent="1">
          <mxGeometry x="336" y="-60" width="82" height="63" as="geometry" />
        </mxCell>
        <mxCell id="5moh-K5nebXSy-n8Y64M-9" value="" style="ellipse;whiteSpace=wrap;html=1;fontSize=16;rotation=105;" vertex="1" parent="1">
          <mxGeometry x="497" y="4" width="82" height="63" as="geometry" />
        </mxCell>
        <mxCell id="5moh-K5nebXSy-n8Y64M-13" value="關聯表id" style="text;strokeColor=none;fillColor=none;html=1;align=center;verticalAlign=middle;whiteSpace=wrap;rounded=0;fontSize=16;" vertex="1" parent="1">
          <mxGeometry x="104" y="5.5" width="36" height="40" as="geometry" />
        </mxCell>
        <mxCell id="5moh-K5nebXSy-n8Y64M-14" value="用戶&lt;br&gt;id" style="text;strokeColor=none;fillColor=none;html=1;align=center;verticalAlign=middle;whiteSpace=wrap;rounded=0;fontSize=16;" vertex="1" parent="1">
          <mxGeometry x="183" y="-21" width="42" height="35" as="geometry" />
        </mxCell>
        <mxCell id="5moh-K5nebXSy-n8Y64M-15" value="頭像" style="text;strokeColor=none;fillColor=none;html=1;align=center;verticalAlign=middle;whiteSpace=wrap;rounded=0;fontSize=16;" vertex="1" parent="1">
          <mxGeometry x="267.5" y="-46.5" width="37" height="36" as="geometry" />
        </mxCell>
        <mxCell id="5moh-K5nebXSy-n8Y64M-16" value="用戶名" style="text;strokeColor=none;fillColor=none;html=1;align=center;verticalAlign=middle;whiteSpace=wrap;rounded=0;fontSize=16;" vertex="1" parent="1">
          <mxGeometry x="357" y="-42" width="40" height="35" as="geometry" />
        </mxCell>
        <mxCell id="5moh-K5nebXSy-n8Y64M-17" value="評論&lt;br&gt;內容" style="text;strokeColor=none;fillColor=none;html=1;align=center;verticalAlign=middle;whiteSpace=wrap;rounded=0;fontSize=16;" vertex="1" parent="1">
          <mxGeometry x="436" y="-23.5" width="46" height="40" as="geometry" />
        </mxCell>
        <mxCell id="5moh-K5nebXSy-n8Y64M-18" value="回覆內容" style="text;strokeColor=none;fillColor=none;html=1;align=center;verticalAlign=middle;whiteSpace=wrap;rounded=0;fontSize=16;" vertex="1" parent="1">
          <mxGeometry x="516.5" y="17" width="43" height="40" as="geometry" />
        </mxCell>
        <mxCell id="5moh-K5nebXSy-n8Y64M-22" value="" style="endArrow=none;html=1;rounded=0;fontSize=12;startSize=8;endSize=8;curved=1;exitX=1;exitY=0.5;exitDx=0;exitDy=0;entryX=0.5;entryY=0;entryDx=0;entryDy=0;" edge="1" parent="1" source="5moh-K5nebXSy-n8Y64M-6" target="5moh-K5nebXSy-n8Y64M-1">
          <mxGeometry width="50" height="50" relative="1" as="geometry">
            <mxPoint x="261" y="137" as="sourcePoint" />
            <mxPoint x="307" y="87" as="targetPoint" />
          </mxGeometry>
        </mxCell>
        <mxCell id="5moh-K5nebXSy-n8Y64M-23" value="" style="endArrow=none;html=1;rounded=0;fontSize=12;startSize=8;endSize=8;curved=1;exitX=1;exitY=0.5;exitDx=0;exitDy=0;entryX=0.5;entryY=0;entryDx=0;entryDy=0;" edge="1" parent="1" source="5moh-K5nebXSy-n8Y64M-5" target="5moh-K5nebXSy-n8Y64M-1">
          <mxGeometry width="50" height="50" relative="1" as="geometry">
            <mxPoint x="261" y="137" as="sourcePoint" />
            <mxPoint x="311" y="87" as="targetPoint" />
          </mxGeometry>
        </mxCell>
        <mxCell id="5moh-K5nebXSy-n8Y64M-24" value="" style="endArrow=none;html=1;rounded=0;fontSize=12;startSize=8;endSize=8;curved=1;entryX=1;entryY=0.5;entryDx=0;entryDy=0;exitX=0.5;exitY=0;exitDx=0;exitDy=0;" edge="1" parent="1" source="5moh-K5nebXSy-n8Y64M-1" target="5moh-K5nebXSy-n8Y64M-4">
          <mxGeometry width="50" height="50" relative="1" as="geometry">
            <mxPoint x="261" y="137" as="sourcePoint" />
            <mxPoint x="311" y="87" as="targetPoint" />
          </mxGeometry>
        </mxCell>
        <mxCell id="5moh-K5nebXSy-n8Y64M-25" value="" style="endArrow=none;html=1;rounded=0;fontSize=12;startSize=8;endSize=8;curved=1;entryX=1;entryY=0.5;entryDx=0;entryDy=0;exitX=0.5;exitY=0;exitDx=0;exitDy=0;" edge="1" parent="1" source="5moh-K5nebXSy-n8Y64M-1" target="5moh-K5nebXSy-n8Y64M-8">
          <mxGeometry width="50" height="50" relative="1" as="geometry">
            <mxPoint x="261" y="137" as="sourcePoint" />
            <mxPoint x="311" y="87" as="targetPoint" />
          </mxGeometry>
        </mxCell>
        <mxCell id="5moh-K5nebXSy-n8Y64M-26" value="" style="endArrow=none;html=1;rounded=0;fontSize=12;startSize=8;endSize=8;curved=1;entryX=1;entryY=0.5;entryDx=0;entryDy=0;exitX=0.5;exitY=0;exitDx=0;exitDy=0;" edge="1" parent="1" source="5moh-K5nebXSy-n8Y64M-1" target="5moh-K5nebXSy-n8Y64M-7">
          <mxGeometry width="50" height="50" relative="1" as="geometry">
            <mxPoint x="261" y="137" as="sourcePoint" />
            <mxPoint x="311" y="87" as="targetPoint" />
          </mxGeometry>
        </mxCell>
        <mxCell id="5moh-K5nebXSy-n8Y64M-27" value="" style="endArrow=none;html=1;rounded=0;fontSize=12;startSize=8;endSize=8;curved=1;entryX=1;entryY=0.5;entryDx=0;entryDy=0;exitX=0.5;exitY=0;exitDx=0;exitDy=0;" edge="1" parent="1" source="5moh-K5nebXSy-n8Y64M-1" target="5moh-K5nebXSy-n8Y64M-9">
          <mxGeometry width="50" height="50" relative="1" as="geometry">
            <mxPoint x="261" y="137" as="sourcePoint" />
            <mxPoint x="311" y="87" as="targetPoint" />
          </mxGeometry>
        </mxCell>
      </root>
    </mxGraphModel>
  </diagram>
</mxfile>
